<svg xmlns="http://www.w3.org/2000/svg" viewBox="0 0 500 500"><title>Artboard 1</title><g id="Hammer"><rect x="169.04" y="69.08" width="45" height="54" transform="translate(-11.84 163.58) rotate(-45)"/><rect x="160.27" y="100.36" width="18" height="36" transform="translate(-34.11 154.36) rotate(-45)"/><rect x="116.81" y="116.81" width="54" height="54" transform="translate(-59.57 143.81) rotate(-45)"/><rect x="95.31" y="148.09" width="27" height="36" transform="translate(-85.57 125.59) rotate(-45)"/><rect x="154.45" y="158.95" width="36" height="27" transform="translate(-71.43 172.45) rotate(-45)"/><rect x="256.82" y="148.82" width="54" height="270" transform="translate(-117.56 283.82) rotate(-45)"/><path d="M86.54,226.54V162.9L112,188.36Z"/></g><g id="Paintbrush"><path d="M124.72,379.28,302.91,175.63l25.46,25.46Z"/><path d="M334.73,182l-6.36,19.09-25.46-25.46L322,169.27"/><path d="M328.37,162.9a23.74,23.74,0,0,1,0-12.73c3.5-12.3,23.89-22.2,50.91-25.46a72.55,72.55,0,0,0-12.73,25.46c-2.36,8.93-1.67,13.94-6.36,19.09-.35.39-8.61,9.17-19.09,6.36C331.94,173.18,328.71,163.93,328.37,162.9Z"/></g></svg>